<?xml version="1.0" standalone="no"?>
<!DOCTYPE svg PUBLIC "-//W3C//DTD SVG 20010904//EN"
 "http://www.w3.org/TR/2001/REC-SVG-20010904/DTD/svg10.dtd">
<svg version="1.0" xmlns="http://www.w3.org/2000/svg"
 width="300.000000pt" height="300.000000pt" viewBox="0 0 300.000000 300.000000"
 preserveAspectRatio="xMidYMid meet">
<metadata>
Created by potrace 1.14, written by Peter Selinger 2001-2017
</metadata>
<g transform="translate(0.000000,300.000000) scale(0.100000,-0.100000)"
fill="#000000" stroke="none">
<path d="M1285 2880 c-148 -17 -269 -42 -383 -81 -203 -68 -316 -143 -507
-334 -171 -171 -235 -293 -271 -514 -17 -107 -20 -389 -5 -482 29 -177 139
-478 241 -663 54 -98 193 -292 258 -359 46 -48 117 -91 137 -83 8 3 26 31 40
62 14 31 41 82 60 114 l35 58 47 -14 c66 -20 226 -18 285 3 26 9 49 15 50 12
2 -2 43 -85 92 -184 48 -99 99 -194 112 -210 l24 -30 24 30 c13 16 64 111 112
210 49 99 90 182 92 184 1 3 24 -3 50 -12 59 -21 219 -23 286 -3 l47 14 32
-56 c18 -32 46 -84 62 -117 27 -55 33 -60 60 -58 24 1 49 21 121 97 198 209
335 453 438 781 59 188 66 240 67 450 2 417 -96 627 -417 894 -240 199 -517
287 -924 296 -102 2 -221 0 -265 -5z m21 -737 c-3 -10 -23 -63 -45 -118 -32
-84 -42 -100 -60 -99 -11 0 -79 1 -150 2 l-128 2 -78 91 c-42 50 -75 92 -73
93 2 3 163 24 303 40 17 1 76 4 133 5 94 1 103 -1 98 -16z m790 -9 c71 -9 131
-18 132 -20 2 -1 -31 -43 -73 -93 l-78 -91 -128 -2 c-71 -1 -139 -2 -150 -2
-18 -1 -28 15 -60 99 -22 55 -42 109 -45 119 -6 18 -1 19 133 13 77 -3 198
-13 269 -23z m-898 -1136 c-25 -46 -101 -128 -118 -128 -6 0 6 21 26 48 40 50
106 122 112 122 2 0 -7 -19 -20 -42z m683 -65 c27 -35 45 -63 39 -63 -18 0
-94 83 -119 130 l-24 45 27 -25 c16 -14 50 -53 77 -87z"/>
</g>
</svg>
